<svg width="56" height="56" viewBox="0 0 56 56" fill="none" xmlns="http://www.w3.org/2000/svg">
<g clip-path="url(#clip0_8558_2186)">
<path d="M32.0758 50.4757C31.6541 50.4757 31.2734 50.1849 31.1763 49.7564C31.0637 49.2591 31.3755 48.7649 31.8727 48.6522C35.9804 47.7221 39.714 45.355 42.3857 41.9868C45.0992 38.5661 46.5935 34.2484 46.5935 29.8293C46.5935 25.1548 44.942 20.6463 41.9434 17.1344C41.6124 16.7466 41.6583 16.164 42.0461 15.8329C42.4338 15.5018 43.0164 15.5479 43.3475 15.9354C46.6314 19.7813 48.4397 24.7154 48.4397 29.829C48.4397 34.663 46.8033 39.3881 43.8322 43.1339C40.8998 46.8307 36.7974 49.4298 32.2805 50.4525C32.2119 50.4684 32.1434 50.4757 32.0758 50.4757Z" fill="#FB8F2E"/>
<path d="M53.6793 14.1943C53.5798 13.8753 53.3502 13.6042 53.0502 13.4508C52.7526 13.2985 52.4023 13.271 52.0891 13.3754C48.5278 14.5642 47.1166 16.7476 46.6751 17.6312C45.3541 20.2752 46.0923 23.3809 46.4707 24.593C46.5702 24.9122 46.7996 25.1834 47.0997 25.3371C47.2784 25.4285 47.4761 25.475 47.6731 25.475C47.8045 25.475 47.9358 25.4543 48.061 25.4124C51.6227 24.2233 53.0338 22.04 53.4751 21.1566C54.7957 18.5136 54.058 15.4074 53.6793 14.1943Z" fill="#FFAE47"/>
<path d="M55.6657 28.7818C55.4388 28.5358 55.1197 28.389 54.79 28.3788C51.0377 28.2638 48.9581 29.8237 48.2384 30.5001C46.0849 32.5241 45.7033 35.6935 45.6392 36.9624C45.6224 37.2962 45.744 37.6298 45.9725 37.8779C46.1994 38.1238 46.5185 38.2706 46.8482 38.2808C46.9815 38.2849 47.1124 38.2868 47.2414 38.2868C50.7469 38.2868 52.7057 36.8119 53.3996 36.1596C55.5531 34.1356 55.9347 30.9661 55.9988 29.6972C56.0158 29.3634 55.8944 29.0296 55.6657 28.7818Z" fill="#FFAE47"/>
<path d="M52.0926 43.8481C52.0295 43.5195 51.8356 43.2263 51.5609 43.0441C48.4329 40.9673 45.8436 41.1974 44.8754 41.3928C41.9784 41.9774 39.9835 44.4697 39.2602 45.5138C39.0697 45.7886 38.997 46.1363 39.0606 46.4675C39.1237 46.7963 39.3176 47.0894 39.5923 47.2719C41.7693 48.7173 43.6849 49.0452 44.9751 49.0452C45.5389 49.0452 45.9834 48.9825 46.2778 48.9231C49.1748 48.3385 51.1697 45.8464 51.893 44.8021C52.0834 44.527 52.1562 44.1794 52.0926 43.8481Z" fill="#FFAE47"/>
<path d="M43.0924 9.56184C41.799 7.06217 39.0347 5.94589 37.9063 5.58211C37.5958 5.48181 37.25 5.51276 36.9579 5.66698C36.664 5.82208 36.4419 6.09223 36.3486 6.40767C36.0073 7.55874 35.353 10.5049 36.6429 12.9977C37.9364 15.4972 40.7006 16.6134 41.829 16.9774C41.9491 17.0161 42.0744 17.0352 42.1998 17.0352C42.3989 17.0352 42.5983 16.987 42.7774 16.8925C43.0713 16.7374 43.2935 16.4673 43.3868 16.1518C43.7279 15.0008 44.3823 12.0546 43.0924 9.56184Z" fill="#FFAE47"/>
<path d="M23.9245 50.4758C23.8569 50.4758 23.7886 50.4682 23.7199 50.4529C19.203 49.4301 15.1007 46.8309 12.1682 43.1343C9.19691 39.3885 7.56055 34.6635 7.56055 29.8294C7.56055 24.7158 9.36896 19.7816 12.6527 15.9358C12.9837 15.548 13.5664 15.5021 13.9542 15.8333C14.3419 16.1643 14.3878 16.747 14.0568 17.1347C11.058 20.6466 9.40659 25.155 9.40659 29.8295C9.40659 34.2486 10.901 38.5663 13.6144 41.987C16.2861 45.3551 20.0197 47.7223 24.1274 48.6525C24.6246 48.7651 24.9364 49.2594 24.8238 49.7566C24.7268 50.1849 24.3462 50.4758 23.9245 50.4758Z" fill="#FB8F2E"/>
<path d="M7.76221 30.5C7.04241 29.8235 4.96351 28.2638 1.21062 28.3788C0.880635 28.389 0.561368 28.536 0.334523 28.782C0.105928 29.0302 -0.0154783 29.3639 0.00158427 29.6974C0.0656783 30.966 0.447289 34.1356 2.60056 36.1596C3.29488 36.8119 5.25325 38.2868 8.75884 38.2868C8.88779 38.2868 9.01904 38.2849 9.15204 38.2808C9.48203 38.2706 9.8013 38.1236 10.0281 37.8777C10.2567 37.6295 10.3781 37.2958 10.3611 36.9623C10.2971 35.6933 9.91559 32.5238 7.76221 30.5Z" fill="#FFAE47"/>
<path d="M16.7399 45.5136C16.0166 44.4693 14.0213 41.977 11.1246 41.3924C10.1563 41.1969 7.56726 40.9667 4.43934 43.0433C4.16426 43.2259 3.97034 43.519 3.90723 43.8477C3.84368 44.179 3.91642 44.5266 4.10684 44.8014C4.83014 45.8458 6.82548 48.338 9.72185 48.9225C10.0165 48.982 10.4607 49.0445 11.0247 49.0445C12.3149 49.0444 14.2311 48.7164 16.4073 47.2715C16.6823 47.089 16.8761 46.796 16.9392 46.4674C17.0031 46.1364 16.9305 45.7888 16.7399 45.5136Z" fill="#FFAE47"/>
<path d="M9.32541 17.6312C8.88408 16.7477 7.47292 14.5642 3.91177 13.3754C3.5984 13.2706 3.24818 13.2982 2.95036 13.4508C2.6499 13.6045 2.42065 13.8756 2.32134 14.1944C1.94279 15.4071 1.20472 18.513 2.52565 21.1568C2.96698 22.0403 4.37814 24.2236 7.93952 25.4126C8.06497 25.4545 8.19611 25.4752 8.32758 25.4752C8.52467 25.4752 8.7221 25.4288 8.9006 25.3374C9.20083 25.1838 9.43019 24.9128 9.52994 24.5934C9.90827 23.3807 10.646 20.2745 9.32541 17.6312Z" fill="#FFAE47"/>
<path d="M19.6515 6.40771C19.5579 6.09195 19.3358 5.82201 19.0418 5.66702C18.75 5.51302 18.4044 5.48218 18.0937 5.58215C16.9652 5.94604 14.2009 7.06232 12.9075 9.56188C11.6177 12.0545 12.272 15.0007 12.6131 16.152C12.7068 16.4677 12.9289 16.7377 13.2229 16.8927C13.4019 16.9872 13.6012 17.0353 13.8003 17.0353C13.9257 17.0353 14.0509 17.016 14.171 16.9774C15.2995 16.6135 18.0637 15.4971 19.3572 12.9977C20.6471 10.5049 19.9928 7.55889 19.6515 6.40771Z" fill="#FFAE47"/>
<path d="M40.9424 26.2074C40.8339 25.8733 40.5449 25.6297 40.1971 25.5793L32.3412 24.4378L28.8279 17.3191C28.6724 17.0039 28.3515 16.8044 28.0001 16.8044C27.6487 16.8044 27.3279 17.0039 27.1722 17.3191L23.659 24.4378L15.8032 25.5793C15.4555 25.6297 15.1665 25.8733 15.0579 26.2074C14.9493 26.5416 15.04 26.9085 15.2914 27.1538L20.976 32.6948L19.6342 40.5191C19.5747 40.8653 19.7171 41.2154 20.0013 41.4219C20.2855 41.6283 20.6623 41.6556 20.9734 41.4922L27.9999 37.7981L35.0265 41.4922C35.1617 41.5632 35.3091 41.5982 35.4559 41.5982C35.6474 41.5982 35.8378 41.5387 35.9985 41.4218C36.2828 41.2153 36.4252 40.8652 36.3657 40.519L35.0237 32.6948L40.7084 27.1538C40.9604 26.9084 41.0509 26.5416 40.9424 26.2074Z" fill="#FFD039"/>
<path d="M35.456 41.5981C35.6476 41.5981 35.838 41.5387 35.9987 41.4217C36.2829 41.2152 36.4253 40.865 36.3658 40.5189L35.0239 32.6947L40.7086 27.1536C40.9601 26.9083 41.0506 26.5416 40.9421 26.2074C40.8336 25.8733 40.5446 25.6297 40.1968 25.5793L37.9488 25.2527L31.4258 31.6164L33.0009 40.4272L35.0265 41.4922C35.1617 41.5631 35.3092 41.5981 35.456 41.5981Z" fill="#FFAE47"/>
</g>
<defs>
<clipPath id="clip0_8558_2186">
<rect width="56" height="56" fill="white"/>
</clipPath>
</defs>
</svg>
