<svg width="26" height="26" viewBox="0 0 26 26" fill="none" xmlns="http://www.w3.org/2000/svg">
<g clip-path="url(#clip0_8320_654)">
<path fill-rule="evenodd" clip-rule="evenodd" d="M19.9036 25.9999C16.8974 25.9999 14.4497 23.5522 14.4497 20.546C14.4497 17.5397 16.8974 15.092 19.9036 15.092C22.9099 15.092 25.3575 17.5397 25.3575 20.546C25.3575 23.5522 22.9099 25.9999 19.9036 25.9999ZM19.5989 23.5818C19.0997 23.5285 18.6228 23.3975 18.2736 23.2171C18.1263 23.1409 18.0654 22.9581 18.1415 22.8058C18.2177 22.6534 18.4005 22.5976 18.5529 22.6737C19.1876 23.0038 20.4064 23.1358 21.0868 22.8159C21.3458 22.694 21.4982 22.5265 21.554 22.303C21.6708 21.7901 21.6353 21.4194 21.4474 21.196C21.1528 20.8456 20.4724 20.8253 19.9138 20.8507C19.1724 20.8811 18.3497 20.8405 17.8876 20.287C17.5728 19.9061 17.4966 19.3577 17.654 18.6518C17.7454 18.2405 18.0247 17.9206 18.4564 17.7175C18.783 17.5664 19.184 17.4933 19.5989 17.482V17.0218C19.5989 16.8542 19.736 16.7171 19.9036 16.7171C20.0712 16.7171 20.2083 16.8542 20.2083 17.0218V17.5074C20.7061 17.5615 21.1813 17.6933 21.5286 17.8749C21.6759 17.9511 21.7368 18.1339 21.6607 18.2862C21.5845 18.4386 21.4017 18.4944 21.2493 18.4182C20.6146 18.0882 19.3958 17.9612 18.7153 18.2761C18.4564 18.3979 18.304 18.5655 18.2482 18.7889C18.1314 19.3018 18.1669 19.6725 18.3548 19.896C18.6493 20.2464 19.3298 20.2667 19.8884 20.2413C20.6298 20.2108 21.4525 20.2515 21.9146 20.805C22.2294 21.1858 22.3056 21.7343 22.1482 22.4401C22.0568 22.8514 21.7775 23.1714 21.3458 23.3745C21.022 23.5225 20.6224 23.5947 20.2083 23.6064V24.0702C20.2083 24.2378 20.0712 24.3749 19.9036 24.3749C19.736 24.3749 19.5989 24.2378 19.5989 24.0702V23.5818Z" fill="white"/>
<path fill-rule="evenodd" clip-rule="evenodd" d="M12.1212 23.5936C11.987 23.59 11.8533 23.5841 11.7199 23.576C10.2045 23.2949 8.78943 22.1341 7.67931 20.239C7.3576 19.6902 7.07127 19.0963 6.82206 18.4658C8.45063 18.9537 10.2517 19.2245 12.1212 19.2525L12.1212 23.5936ZM9.35901 23.1925C7.38836 22.662 5.58276 21.6221 4.10045 20.1398C2.61819 18.6575 1.57834 16.8519 1.04782 14.8814C1.67367 15.7082 2.55668 16.4658 3.67299 17.1201C4.39326 17.542 5.18536 17.9058 6.03267 18.2075C6.33438 19.0548 6.69809 19.8468 7.12002 20.5671C7.7744 21.6835 8.53208 22.5666 9.35901 23.1925ZM12.7665 19.2526C13.2107 19.2461 13.6535 19.2262 14.093 19.1919C13.9916 19.6271 13.9378 20.0804 13.9378 20.546C13.9378 21.4532 14.1419 22.3137 14.5059 23.0844C14.0701 23.3277 13.6236 23.4916 13.1703 23.5759C13.0359 23.5841 12.9013 23.59 12.7665 23.5936L12.7665 19.2526ZM0.664327 12.5217C0.656367 12.3897 0.65045 12.2572 0.646852 12.1243H4.9877C5.01611 13.9919 5.28683 15.7911 5.77431 17.4181C5.14378 17.1689 4.54994 16.8825 4.00106 16.5608C2.10659 15.4511 0.945986 14.0366 0.664327 12.5217ZM5.63844 12.1243H12.1212V18.6018C10.1331 18.5712 8.22812 18.2588 6.54266 17.6973C5.98176 16.0135 5.66944 14.1104 5.63844 12.1243ZM12.7664 12.1243H19.2545C19.2411 12.9778 19.1751 13.82 19.0583 14.6405C16.8527 14.9549 15.0314 16.4806 14.2924 18.5201C13.7885 18.566 13.278 18.5935 12.7664 18.6017L12.7664 12.1243ZM19.9 12.1243H24.241C24.2372 12.2671 24.2308 12.4095 24.2219 12.5515C24.0358 13.5029 23.5008 14.4189 22.6419 15.2473C21.8213 14.8214 20.89 14.5803 19.9035 14.5803C19.8415 14.5803 19.7798 14.5815 19.7182 14.5835C19.827 13.7796 19.8876 12.9566 19.9 12.1243ZM23.8399 14.877C23.754 15.1955 23.6545 15.5106 23.5417 15.822C23.4371 15.7413 23.3299 15.6638 23.22 15.59C23.4488 15.3584 23.6556 15.1205 23.8399 14.877ZM0.646484 11.479C0.650083 11.3425 0.656057 11.2064 0.664276 11.0708C0.94598 9.55593 2.10656 8.14151 4.00099 7.03176C4.54988 6.71004 5.14371 6.42367 5.77424 6.17445C5.28585 7.80462 5.01498 9.60757 4.98744 11.479L0.646484 11.479ZM6.54259 5.89525C8.22803 5.33383 10.133 5.02136 12.1211 4.99083V11.479H5.63818C5.66824 9.48906 5.98068 7.58217 6.54259 5.89525ZM12.7664 4.99083C14.7585 5.02132 16.6635 5.33399 18.35 5.8945C18.9121 7.58161 19.2246 9.48876 19.2547 11.479H12.7664L12.7664 4.99083ZM19.1102 6.16976C19.7434 6.41878 20.3399 6.70497 20.8919 7.0264C22.7669 8.12477 23.9231 9.52166 24.2197 11.0189C24.2296 11.1717 24.2368 11.3251 24.2409 11.479H19.9C19.8719 9.60565 19.6001 7.80103 19.1102 6.16976ZM1.04959 8.70885C1.58147 6.73973 2.62222 4.93633 4.10039 3.45815C5.58213 1.97641 7.38915 0.936745 9.35892 0.406055C8.53202 1.03112 7.77385 1.91237 7.11996 3.02547C6.69804 3.74572 6.33428 4.53779 6.03258 5.38512C5.18527 5.68683 4.3932 6.05058 3.67293 6.47252C2.55771 7.12619 1.67532 7.88297 1.04959 8.70885ZM11.6778 0.0245615C11.8251 0.0151617 11.9729 0.00836749 12.1211 0.00440894V4.3401C10.2516 4.36807 8.45055 4.63888 6.82198 5.12683C7.07117 4.49629 7.35753 3.90243 7.67924 3.35354C8.77905 1.476 10.1782 0.319263 11.6778 0.0245615ZM12.7664 0.00439453C12.9154 0.00836745 13.0638 0.0151762 13.2118 0.0246334C14.7136 0.319451 16.1093 1.47614 17.2137 3.35354C17.5357 3.90295 17.8223 4.49744 18.0716 5.12864C16.4415 4.63956 14.6382 4.3681 12.7664 4.34009L12.7664 0.00439453ZM15.5257 0.404725C17.4975 0.934994 19.3041 1.97516 20.7871 3.45817C22.2674 4.9384 23.3065 6.74101 23.8377 8.70847C23.2119 7.88273 22.3296 7.12613 21.2146 6.47256C20.4937 6.05026 19.7009 5.68625 18.8527 5.38438C18.5515 4.53938 18.1885 3.7494 17.7676 3.03089C17.1129 1.91401 16.3537 1.03063 15.5257 0.404725Z" fill="white"/>
</g>
<defs>
<clipPath id="clip0_8320_654">
<rect width="26" height="26" fill="white"/>
</clipPath>
</defs>
</svg>
