<svg width="14" height="8" viewBox="0 0 14 8" fill="none" xmlns="http://www.w3.org/2000/svg">
<path d="M12.998 0C13.85 0 14.295 0.986 13.781 1.623L13.705 1.707L7.705 7.707C7.53281 7.87918 7.30371 7.98261 7.06068 7.99789C6.81766 8.01317 6.5774 7.93925 6.385 7.79L6.291 7.707L0.291 1.707L0.208 1.613L0.154 1.536L0.1 1.44L0.0830002 1.404L0.0560002 1.337L0.0240002 1.229L0.0139999 1.176L0.00400019 1.116L0 1.059V0.941L0.00500011 0.883L0.0139999 0.823L0.0240002 0.771L0.0560002 0.663L0.0830002 0.596L0.153 0.464L0.218 0.374L0.291 0.293L0.385 0.21L0.462 0.156L0.558 0.102L0.594 0.085L0.661 0.0579996L0.769 0.026L0.822 0.0159998L0.882 0.00599957L0.939 0.00199986L12.998 0Z" fill="#072720"/>
</svg>
