<svg width="22" height="22" viewBox="0 0 22 22" fill="none" xmlns="http://www.w3.org/2000/svg">
<g clip-path="url(#clip0_6320_159)">
<path d="M1.93664 4.76709C1.22729 5.79668 0.688207 6.95274 0.361328 8.19528H5.36502L1.93664 4.76709Z" fill="#29337A"/>
<path d="M7.91809 0.440186C6.6507 0.809283 5.47694 1.39825 4.44336 2.16645L7.91809 5.64117V0.440186Z" fill="#29337A"/>
<path d="M4.70312 20.0168C5.67261 20.6952 6.75576 21.2204 7.91943 21.5593V16.801L4.70312 20.0168Z" fill="#29337A"/>
<path d="M0.488281 14.2478C0.851991 15.4259 1.40933 16.5189 2.12161 17.4912L5.36499 14.2478H0.488281Z" fill="#29337A"/>
<path d="M2.11878 4.51172C2.05729 4.59578 1.99668 4.68106 1.93728 4.76721L5.36565 8.1954H0.361959C0.280866 8.50403 0.214683 8.8186 0.160156 9.13749H6.74492L2.11878 4.51172Z" fill="white"/>
<path d="M4.44727 19.8353C4.53096 19.8976 4.61698 19.957 4.70239 20.0168L7.91869 16.8008V21.5591C8.22769 21.6494 8.54152 21.7274 8.86078 21.7901V15.4219L4.44727 19.8353Z" fill="white"/>
<path d="M0.244141 13.3059C0.312415 13.6251 0.392996 13.9395 0.488348 14.248H5.3651L2.12172 17.4914C2.47447 17.9733 2.86563 18.4256 3.29064 18.8439L8.82854 13.3059H0.244141Z" fill="white"/>
<path d="M7.91999 0.440245V5.64123L4.44521 2.16669C3.96618 2.52293 3.51841 2.9184 3.10352 3.34653L8.86189 9.10491V0.209229C8.54281 0.272301 8.22898 0.350467 7.91999 0.440245Z" fill="white"/>
<path d="M7.91974 14.2146L7.88672 14.2478H7.91974V14.2146Z" fill="#EF5A41"/>
<path d="M8.82812 13.3059H8.8611V13.2727L8.82812 13.3059Z" fill="#EF5A41"/>
<path d="M13.0611 9.13745H13.0293V9.16941L13.0611 9.13745Z" fill="#EF5A41"/>
<path d="M7.95239 8.19549L7.91992 8.16284V8.19549H7.95239Z" fill="#EF5A41"/>
<path d="M8.86133 9.10498V9.13749H8.89384L8.86133 9.10498Z" fill="#EF5A41"/>
<path d="M13.9727 19.1245V21.5903C15.1515 21.2603 16.2505 20.7401 17.2336 20.0624L14.5618 17.3906C14.3483 18.1408 14.2702 18.5286 13.9727 19.1245Z" fill="#252F6C"/>
<path d="M14.5759 5.03804L17.4926 2.12135C16.4447 1.35398 15.256 0.769198 13.9727 0.409668V2.94268C14.3157 3.6296 14.3445 4.15154 14.5759 5.03804Z" fill="#252F6C"/>
<path d="M19.8348 17.5555C20.5693 16.5674 21.1418 15.452 21.5137 14.248H16.5273L19.8348 17.5555Z" fill="#252F6C"/>
<path d="M21.6389 8.19565C21.305 6.92687 20.7498 5.74912 20.018 4.70337L16.5254 8.19565H21.6389Z" fill="#252F6C"/>
<path d="M15.2168 13.4923L15.9727 14.2482L19.5909 17.8664C19.673 17.7636 19.7546 17.6611 19.8332 17.5557L16.5257 14.2482H21.512C21.6071 13.9399 21.6878 13.6254 21.7559 13.3062H15.2875C15.2769 13.4397 15.2295 13.3597 15.2168 13.4923Z" fill="#E7E7E7"/>
<path d="M14.4601 5.58965L17.7395 2.30995C17.6573 2.24623 17.575 2.18283 17.4911 2.12134L14.5744 5.03803C14.6046 5.15335 14.432 5.47154 14.4601 5.58965Z" fill="#E7E7E7"/>
<path d="M13.9714 2.74V0.409486C13.6628 0.323006 13.3486 0.249716 13.0293 0.189941V1.32673C13.3798 1.70674 13.694 2.18405 13.9714 2.74Z" fill="#E7E7E7"/>
<path d="M15.1427 9.13757H21.8398C21.7854 8.81868 21.7191 8.50429 21.638 8.19548H16.5245L20.0172 4.7032C19.6738 4.2127 19.2922 3.75141 18.8754 3.32397L14.9414 7.25758C15.0473 7.97111 15.0948 8.38549 15.1427 9.13757Z" fill="#E7E7E7"/>
<path d="M14.4023 17.2313L17.2333 20.0625C17.7041 19.7383 18.1475 19.3773 18.5612 18.9855L14.8376 15.2617C14.7188 15.9504 14.5778 16.6156 14.4023 17.2313Z" fill="#E7E7E7"/>
<path d="M13.0293 20.5428V21.8099C13.3485 21.7505 13.6626 21.6768 13.9714 21.5903V19.1245C13.6938 19.6807 13.3796 20.1633 13.0293 20.5428Z" fill="#E7E7E7"/>
<path d="M14.9411 7.2574L18.8747 3.3238C18.5206 2.96009 18.1409 2.6216 17.7393 2.30981L14.6484 5.40123C14.7858 5.97543 14.8482 6.63267 14.9411 7.2574Z" fill="#D71F28"/>
<path d="M10.4512 0.0135619C10.6344 0.00469093 10.8172 0 11 0C10.8161 0 10.633 0.00469093 10.4512 0.0135619Z" fill="#EF5A41"/>
<path d="M10.9997 22C10.8168 22 10.6341 21.995 10.4512 21.9861C10.633 21.9953 10.8158 22 10.9997 22Z" fill="#EF5A41"/>
<path d="M11 22.0001C11.694 22.0001 12.3717 21.9329 13.03 21.8097V20.5427C12.4522 21.169 11.7762 22.0001 11 22.0001Z" fill="#EF5A41"/>
<path d="M21.8409 9.13745H15.2308C15.3184 10.517 15.3078 11.9357 15.1992 13.3059H21.7572C21.916 12.562 22.0011 11.7912 22.0011 11.0002C22.0011 10.3648 21.9445 9.74342 21.8409 9.13745Z" fill="#D71F28"/>
<path d="M15.2179 13.4922C15.1568 14.1421 14.9438 14.6486 14.8379 15.2617L18.5615 18.9853C18.9299 18.6362 19.2743 18.2628 19.5918 17.8663L15.9737 14.2479L15.2179 13.4922Z" fill="#D71F28"/>
<path d="M13.0301 1.40839V0.190006C12.372 0.0672057 11.6943 0 11 0C11.7762 0 12.4522 0.782271 13.0301 1.40839Z" fill="#EF5A41"/>
<path d="M13.9727 19.6001C14.2702 19.004 14.5253 18.3178 14.7389 17.5678L13.9727 16.8015V19.6001Z" fill="#29337A"/>
<path d="M14.8343 4.77947C14.6026 3.89298 14.3157 3.08707 13.9727 2.40015V5.64074L14.8343 4.77947Z" fill="#29337A"/>
<path d="M15.4309 13.7056C15.4434 13.5729 15.4547 13.4397 15.4655 13.3059H15.0312L15.4309 13.7056Z" fill="white"/>
<path d="M13.9714 5.64087V2.40009C13.6938 1.84414 13.3798 1.3665 13.0293 0.986816V7.02028L14.9212 5.12835C14.8928 5.01024 14.8628 4.89455 14.833 4.77922L13.9714 5.64087Z" fill="white"/>
<path d="M13.0605 9.13742H15.4956C15.4479 8.38539 15.3718 7.64548 15.266 6.93213L13.0605 9.13742Z" fill="white"/>
<path d="M13.0293 21.0133C13.3798 20.6333 13.6938 20.156 13.9714 19.6V16.8014L14.7377 17.5677C14.9134 16.9517 15.0609 16.2936 15.1801 15.6049L13.0293 13.4543L13.0293 21.0133Z" fill="white"/>
<path d="M13.0299 21.0131V13.4542L15.1805 15.6049C15.2862 14.9916 15.3694 14.3556 15.4304 13.7055L15.0307 13.3058H15.4649C15.5735 11.9356 15.5841 10.517 15.4966 9.13742H13.0615L15.2668 6.93213C15.1739 6.30721 15.0589 5.70278 14.9215 5.1284L13.0299 7.02033V0.98686C12.452 0.360551 11.776 0 10.9998 0C10.8169 0 10.6342 0.00469093 10.451 0.0135619C9.90994 0.0406393 9.37935 0.107195 8.8614 0.209327V9.10496L3.10289 3.34658C2.74907 3.71169 2.41996 4.10071 2.11877 4.51184L5.80245 8.19552L6.74486 9.13761H0.160142C0.0569878 9.74339 0 10.3648 0 11.0002C0 11.7913 0.0854585 12.5619 0.243835 13.3058H8.82842L3.29048 18.8438C3.65312 19.2 4.03922 19.5318 4.44793 19.8353L8.86126 15.422V21.7903C9.37917 21.8925 9.91012 21.959 10.4512 21.9861C10.6341 21.995 10.8168 22 10.9997 22C11.776 22 12.452 21.6395 13.0299 21.0131Z" fill="#E51D35"/>
</g>
<defs>
<clipPath id="clip0_6320_159">
<rect width="22" height="22" fill="white"/>
</clipPath>
</defs>
</svg>
