<svg width="218" height="11" viewBox="0 0 218 11" fill="none" xmlns="http://www.w3.org/2000/svg">
<path d="M197.217 9.30458C194.385 9.31838 190.947 9.30458 187.814 7.93797C187.118 7.63428 186.44 7.88275 185.792 8.12663C184.322 8.67879 182.876 9.26317 181.381 9.76932C175.177 11.8722 169.452 11.3338 164.435 7.74011C163.187 6.84284 162.389 6.83364 161.039 7.66649C155.128 11.297 150.243 11.4948 143.726 8.52694C142.46 7.95177 141.164 7.40421 139.982 6.73701C138.02 5.62808 136.093 5.70171 134.023 6.53916C131.413 7.58827 128.7 8.44412 125.88 9.12052C120.719 10.3629 116.213 9.52085 112.186 6.85205C111.856 6.63118 111.502 6.43333 111.196 6.19406C110.068 5.29218 109.09 5.18175 107.752 6.12963C104.925 8.13123 101.721 9.56226 97.6283 9.33679C95.7921 9.23556 94.1058 8.79383 92.4556 8.25087C90.7994 7.70791 89.2152 7.0315 87.751 6.23086C82.7463 3.49304 83.2324 3.83354 78.2277 6.0376C73.7391 8.01619 69.0405 9.08832 63.8318 8.31989C60.5194 7.83214 57.789 6.48394 55.2567 4.84125C52.7304 3.20776 52.6163 3.23076 49.664 4.44552C45.7394 6.06521 41.6889 7.32598 37.1103 7.28917C32.8077 7.25696 29.1292 6.21706 26.1588 3.74612C23.9805 1.93778 23.8905 1.94697 21.3162 3.41021C17.1217 5.79373 12.7651 7.92877 7.53237 8.66039C5.34208 8.96868 3.08577 9.11593 0.955485 8.3475C0.469421 8.17264 -0.160644 7.97018 0.0373825 7.46403C0.217406 7.01309 0.883509 7.13733 1.32757 7.19255C5.93018 7.75852 9.86669 6.3643 13.7312 4.75382C16.1855 3.72771 18.2738 2.29668 20.5601 1.09572C23.4705 -0.436539 25.2767 -0.431938 27.617 1.55586C32.1116 5.375 37.4763 5.31978 43.2191 3.91176C45.4094 3.3734 47.3777 2.45313 49.4059 1.63409C51.9683 0.598777 54.3146 0.718412 56.4869 2.23687C56.8889 2.51755 57.3389 2.76142 57.747 3.0375C62.8957 6.50694 68.5784 6.81983 74.6212 4.64338C76.2474 4.059 77.7777 3.32739 79.3379 2.63718C82.0082 1.46383 84.5706 1.46844 87.1569 2.84425C89.4852 4.07742 91.8255 5.31059 94.4839 6.12043C97.8563 7.15114 100.989 6.94408 103.851 5.15874C104.655 4.65719 105.441 4.14183 106.221 3.62187C108.43 2.16784 110.206 2.09421 112.564 3.378C113.674 3.98078 114.761 4.61577 115.889 5.20475C118.019 6.32288 120.335 6.68639 122.892 6.27227C124.938 5.94097 126.876 5.41641 128.76 4.74461C129.895 4.33969 131.047 3.94857 132.151 3.49303C135.913 1.93777 139.448 2.23686 142.898 4.10042C144.41 4.91486 146.049 5.59587 147.675 6.27227C150.909 7.62047 154.06 7.43643 157.072 5.83515C158.104 5.28758 159.1 4.7032 160.145 4.16944C161.885 3.28137 163.619 3.29057 165.299 4.27067C166.037 4.6986 166.763 5.14033 167.454 5.61428C170.544 7.72171 174.042 8.22326 177.955 7.26617C180.049 6.75542 181.963 5.94558 183.878 5.15414C186.056 4.24767 188.144 4.08662 190.377 5.09892C192.219 5.93177 194.373 5.85355 196.431 5.95018C202.318 6.22626 208.193 5.6787 214.074 5.72931C215.052 5.73851 216.03 5.83053 217.002 5.89495C217.434 5.92256 217.962 5.91336 217.998 6.3597C218.034 6.77842 217.512 6.89807 217.11 6.98549C215.484 7.3306 213.852 7.67109 212.207 7.96557C207.467 8.80303 202.678 9.35059 197.187 9.30458H197.217Z" fill="#9EDD05"/>
</svg>
