<svg width="105" height="11" viewBox="0 0 105 11" fill="none" xmlns="http://www.w3.org/2000/svg">
<path d="M94.9901 9.30458C93.6259 9.31838 91.9697 9.30458 90.461 7.93797C90.1257 7.63428 89.7991 7.88275 89.4869 8.12663C88.7788 8.67879 88.0823 9.26317 87.3626 9.76932C84.374 11.8722 81.6167 11.3338 79.2004 7.74011C78.5992 6.84284 78.2148 6.83364 77.5645 7.66649C74.7176 11.297 72.3649 11.4948 69.226 8.52694C68.6162 7.95177 67.9919 7.40421 67.4225 6.73701C66.4774 5.62808 65.5496 5.70171 64.5524 6.53916C63.2951 7.58827 61.9887 8.44412 60.6303 9.12052C58.1446 10.3629 55.974 9.52085 54.0347 6.85205C53.8757 6.63118 53.7052 6.43333 53.5577 6.19406C53.0144 5.29218 52.5433 5.18175 51.8987 6.12963C50.5374 8.13123 48.994 9.56226 47.0228 9.33679C46.1384 9.23556 45.3262 8.79383 44.5314 8.25087C43.7337 7.70791 42.9706 7.0315 42.2654 6.23086C39.8549 3.49304 40.089 3.83354 37.6785 6.0376C35.5166 8.01619 33.2535 9.08832 30.7447 8.31989C29.1492 7.83214 27.8342 6.48394 26.6145 4.84125C25.3977 3.20776 25.3427 3.23076 23.9207 4.44552C22.0305 6.06521 20.0795 7.32598 17.8742 7.28917C15.8019 7.25696 14.0301 6.21706 12.5994 3.74612C11.5503 1.93778 11.5069 1.94697 10.267 3.41021C8.24667 5.79373 6.14831 7.92877 3.62798 8.66039C2.57302 8.96868 1.48626 9.11593 0.460211 8.3475C0.226097 8.17264 -0.0773743 7.97018 0.0180053 7.46403C0.104714 7.01309 0.425543 7.13733 0.639425 7.19255C2.85628 7.75852 4.7523 6.3643 6.61365 4.75382C7.79578 3.72771 8.8016 2.29668 9.9028 1.09572C11.3046 -0.436539 12.1746 -0.431938 13.3018 1.55586C15.4666 5.375 18.0505 5.31978 20.8165 3.91176C21.8715 3.3734 22.8195 2.45313 23.7964 1.63409C25.0306 0.598777 26.1607 0.718412 27.207 2.23687C27.4006 2.51755 27.6174 2.76142 27.8139 3.0375C30.2938 6.50694 33.0309 6.81983 35.9414 4.64338C36.7247 4.059 37.4617 3.32739 38.2132 2.63718C39.4994 1.46383 40.7335 1.46844 41.9792 2.84425C43.1007 4.07742 44.2279 5.31059 45.5083 6.12043C47.1326 7.15114 48.6414 6.94408 50.02 5.15874C50.4073 4.65719 50.786 4.14183 51.1617 3.62187C52.2253 2.16784 53.0809 2.09421 54.2167 3.378C54.7514 3.98078 55.2746 4.61577 55.818 5.20475C56.844 6.32288 57.9597 6.68639 59.1909 6.27227C60.1765 5.94097 61.1101 5.41641 62.0176 4.74461C62.5639 4.33969 63.1188 3.94857 63.6506 3.49303C65.4629 1.93777 67.1652 2.23686 68.8272 4.10042C69.5555 4.91486 70.3446 5.59587 71.1278 6.27227C72.6857 7.62047 74.2031 7.43643 75.654 5.83515C76.1511 5.28758 76.6309 4.7032 77.1338 4.16944C77.972 3.28137 78.8073 3.29057 79.6166 4.27067C79.9721 4.6986 80.3218 5.14033 80.6542 5.61428C82.1427 7.72171 83.8278 8.22326 85.7122 7.26617C86.7209 6.75542 87.6429 5.94558 88.5649 5.15414C89.6141 4.24767 90.6199 4.08662 91.6951 5.09892C92.5825 5.93177 93.6201 5.85355 94.6114 5.95018C97.4468 6.22626 100.276 5.6787 103.109 5.72931C103.58 5.73851 104.051 5.83053 104.519 5.89495C104.727 5.92256 104.982 5.91336 104.999 6.3597C105.016 6.77842 104.765 6.89807 104.571 6.98549C103.788 7.3306 103.002 7.67109 102.21 7.96557C99.9267 8.80303 97.6202 9.35059 94.9756 9.30458H94.9901Z" fill="#9EDD05"/>
</svg>
