<svg width="142" height="11" viewBox="0 0 142 11" fill="none" xmlns="http://www.w3.org/2000/svg">
<path d="M128.463 9.30458C126.618 9.31838 124.378 9.30458 122.338 7.93797C121.884 7.63428 121.443 7.88275 121.02 8.12663C120.063 8.67879 119.121 9.26317 118.147 9.76932C114.106 11.8722 110.377 11.3338 107.109 7.74011C106.296 6.84284 105.776 6.83364 104.897 7.66649C101.047 11.297 97.8649 11.4948 93.6199 8.52694C92.7952 7.95177 91.9509 7.40421 91.1809 6.73701C89.9027 5.62808 88.648 5.70171 87.2994 6.53916C85.5991 7.58827 83.8324 8.44412 81.9953 9.12052C78.6337 10.3629 75.6982 9.52085 73.0754 6.85205C72.8605 6.63118 72.6298 6.43333 72.4305 6.19406C71.6956 5.29218 71.0585 5.18175 70.1868 6.12963C68.3458 8.13123 66.2585 9.56226 63.5927 9.33679C62.3967 9.23556 61.2983 8.79383 60.2234 8.25087C59.1446 7.70791 58.1126 7.0315 57.1589 6.23086C53.899 3.49304 54.2156 3.83354 50.9557 6.0376C48.0319 8.01619 44.9713 9.08832 41.5785 8.31989C39.4209 7.83214 37.6424 6.48394 35.9929 4.84125C34.3473 3.20776 34.273 3.23076 32.3499 4.44552C29.7936 6.06521 27.1551 7.32598 24.1727 7.28917C21.3702 7.25696 18.9741 6.21706 17.0392 3.74612C15.6203 1.93778 15.5617 1.94697 13.8849 3.41021C11.1526 5.79373 8.31486 7.92877 4.9064 8.66039C3.4797 8.96868 2.00999 9.11593 0.62238 8.3475C0.305769 8.17264 -0.104639 7.97018 0.0243501 7.46403C0.141613 7.01309 0.575497 7.13733 0.864746 7.19255C3.86278 7.75852 6.42692 6.3643 8.94417 4.75382C10.5429 3.72771 11.9031 2.29668 13.3924 1.09572C15.2881 -0.436539 16.4647 -0.431938 17.9891 1.55586C20.9168 5.375 24.4112 5.31978 28.1519 3.91176C29.5786 3.3734 30.8607 2.45313 32.1818 1.63409C33.8509 0.598777 35.3792 0.718412 36.7942 2.23687C37.0561 2.51755 37.3492 2.76142 37.615 3.0375C40.9688 6.50694 44.6704 6.81983 48.6065 4.64338C49.6658 4.059 50.6625 3.32739 51.6788 2.63718C53.4182 1.46383 55.0872 1.46844 56.7719 2.84425C58.2885 4.07742 59.813 5.31059 61.5446 6.12043C63.7413 7.15114 65.7817 6.94408 67.6461 5.15874C68.1699 4.65719 68.682 4.14183 69.1901 3.62187C70.6285 2.16784 71.7855 2.09421 73.3217 3.378C74.0448 3.98078 74.7523 4.61577 75.4871 5.20475C76.8748 6.32288 78.3835 6.68639 80.0487 6.27227C81.3816 5.94097 82.6441 5.41641 83.8715 4.74461C84.6102 4.33969 85.3607 3.94857 86.0799 3.49303C88.5307 1.93777 90.833 2.23686 93.0805 4.10042C94.0655 4.91486 95.1326 5.59587 96.1919 6.27227C98.2987 7.62047 100.351 7.43643 102.313 5.83515C102.985 5.28758 103.634 4.7032 104.314 4.16944C105.448 3.28137 106.578 3.29057 107.672 4.27067C108.153 4.6986 108.626 5.14033 109.075 5.61428C111.088 7.72171 113.367 8.22326 115.916 7.26617C117.28 6.75542 118.527 5.94558 119.774 5.15414C121.192 4.24767 122.553 4.08662 124.007 5.09892C125.207 5.93177 126.61 5.85355 127.951 5.95018C131.785 6.22626 135.612 5.6787 139.442 5.72931C140.08 5.73851 140.717 5.83053 141.35 5.89495C141.631 5.92256 141.975 5.91336 141.999 6.3597C142.022 6.77842 141.682 6.89807 141.42 6.98549C140.361 7.3306 139.298 7.67109 138.227 7.96557C135.139 8.80303 132.02 9.35059 128.443 9.30458H128.463Z" fill="#0C3A30"/>
</svg>
