<svg width="73" height="11" viewBox="0 0 73 11" fill="none" xmlns="http://www.w3.org/2000/svg">
<path d="M66.0407 9.30458C65.0923 9.31838 63.9408 9.30458 62.8919 7.93797C62.6588 7.63428 62.4318 7.88275 62.2147 8.12663C61.7224 8.67879 61.2381 9.26317 60.7378 9.76932C58.66 11.8722 56.743 11.3338 55.0631 7.74011C54.6452 6.84284 54.3779 6.83364 53.9258 7.66649C51.9465 11.297 50.3108 11.4948 48.1286 8.52694C47.7046 7.95177 47.2705 7.40421 46.8747 6.73701C46.2176 5.62808 45.5725 5.70171 44.8793 6.53916C44.0052 7.58827 43.0969 8.44412 42.1525 9.12052C40.4244 10.3629 38.9153 9.52085 37.5669 6.85205C37.4564 6.63118 37.3379 6.43333 37.2354 6.19406C36.8576 5.29218 36.5301 5.18175 36.082 6.12963C35.1355 8.13123 34.0625 9.56226 32.692 9.33679C32.0772 9.23556 31.5125 8.79383 30.9599 8.25087C30.4053 7.70791 29.8748 7.0315 29.3845 6.23086C27.7086 3.49304 27.8714 3.83354 26.1955 6.0376C24.6925 8.01619 23.1191 9.08832 21.3749 8.31989C20.2657 7.83214 19.3514 6.48394 18.5034 4.84125C17.6574 3.20776 17.6192 3.23076 16.6306 4.44552C15.3164 6.06521 13.96 7.32598 12.4268 7.28917C10.9861 7.25696 9.75428 6.21706 8.7596 3.74612C8.03018 1.93778 8.00005 1.94697 7.138 3.41021C5.7334 5.79373 4.27454 7.92877 2.52231 8.66039C1.78886 8.96868 1.03331 9.11593 0.319956 8.3475C0.157191 8.17264 -0.0537935 7.97018 0.012518 7.46403C0.0728012 7.01309 0.295854 7.13733 0.444553 7.19255C1.98579 7.75852 3.30398 6.3643 4.59806 4.75382C5.41992 3.72771 6.11921 2.29668 6.88481 1.09572C7.85938 -0.436539 8.46423 -0.431938 9.24791 1.55586C10.753 5.375 12.5494 5.31978 14.4725 3.91176C15.2059 3.3734 15.865 2.45313 16.5442 1.63409C17.4022 0.598777 18.1879 0.718412 18.9153 2.23687C19.05 2.51755 19.2007 2.76142 19.3373 3.0375C21.0614 6.50694 22.9643 6.81983 24.9878 4.64338C25.5324 4.059 26.0448 3.32739 26.5673 2.63718C27.4615 1.46383 28.3195 1.46844 29.1856 2.84425C29.9652 4.07742 30.7489 5.31059 31.6391 6.12043C32.7684 7.15114 33.8173 6.94408 34.7758 5.15874C35.0451 4.65719 35.3083 4.14183 35.5696 3.62187C36.309 2.16784 36.9038 2.09421 37.6935 3.378C38.0653 3.98078 38.429 4.61577 38.8068 5.20475C39.5201 6.32288 40.2958 6.68639 41.1518 6.27227C41.837 5.94097 42.4861 5.41641 43.117 4.74461C43.4968 4.33969 43.8826 3.94857 44.2523 3.49303C45.5123 1.93777 46.6958 2.23686 47.8513 4.10042C48.3576 4.91486 48.9062 5.59587 49.4508 6.27227C50.5339 7.62047 51.5888 7.43643 52.5976 5.83515C52.9432 5.28758 53.2767 4.7032 53.6264 4.16944C54.2091 3.28137 54.7899 3.29057 55.3525 4.27067C55.5997 4.6986 55.8428 5.14033 56.0739 5.61428C57.1087 7.72171 58.2802 8.22326 59.5904 7.26617C60.2917 6.75542 60.9327 5.94558 61.5737 5.15414C62.3031 4.24767 63.0024 4.08662 63.7499 5.09892C64.3668 5.93177 65.0882 5.85355 65.7775 5.95018C67.7487 6.22626 69.716 5.6787 71.6852 5.72931C72.0128 5.73851 72.3403 5.83053 72.6658 5.89495C72.8105 5.92256 72.9874 5.91336 72.9994 6.3597C73.0115 6.77842 72.8366 6.89807 72.702 6.98549C72.1575 7.3306 71.6109 7.67109 71.0603 7.96557C69.4728 8.80303 67.8693 9.35059 66.0307 9.30458H66.0407Z" fill="#9EDD05"/>
</svg>
