<svg width="11" height="17" viewBox="0 0 11 17" fill="none" xmlns="http://www.w3.org/2000/svg">
<path d="M1.47656 1.85156C2.46094 0.867188 3.65625 0.375 5.0625 0.375C6.46875 0.375 7.66406 0.867188 8.64844 1.85156C9.63281 2.83594 10.125 4.03125 10.125 5.4375C10.125 6.60938 9.70312 8.08594 8.85938 9.86719C8.01562 11.6484 7.17188 13.1367 6.32812 14.332L5.0625 16.125C4.6875 15.6094 4.21875 14.9531 3.65625 14.1562C3.09375 13.3359 2.34375 11.9766 1.40625 10.0781C0.46875 8.15625 0 6.60938 0 5.4375C0 4.03125 0.492188 2.83594 1.47656 1.85156ZM3.86719 6.63281C4.19531 6.9375 4.59375 7.08984 5.0625 7.08984C5.53125 7.08984 5.91797 6.9375 6.22266 6.63281C6.55078 6.30469 6.71484 5.90625 6.71484 5.4375C6.71484 4.96875 6.55078 4.58203 6.22266 4.27734C5.91797 3.94922 5.53125 3.78516 5.0625 3.78516C4.59375 3.78516 4.19531 3.94922 3.86719 4.27734C3.5625 4.58203 3.41016 4.96875 3.41016 5.4375C3.41016 5.90625 3.5625 6.30469 3.86719 6.63281Z" fill="#9EDD05"/>
</svg>
