<svg width="29" height="20" viewBox="0 0 29 20" fill="none" xmlns="http://www.w3.org/2000/svg">
<path fill-rule="evenodd" clip-rule="evenodd" d="M14.1842 20L-0.000187079 -1.43007e-06L4.34722 -1.05001e-06L16.3579 16.9351L14.1842 20Z" fill="url(#paint0_linear_8506_310)"/>
<path fill-rule="evenodd" clip-rule="evenodd" d="M15.0123 1.31242e-06L17.5273 3.5461L2.51496 3.5461L0 0L15.0123 1.31242e-06Z" fill="url(#paint1_linear_8506_310)"/>
<path fill-rule="evenodd" clip-rule="evenodd" d="M24.0213 1.52729e-06L28.3687 1.90735e-06L14.1843 20L12.0106 16.9351L24.0213 1.52729e-06Z" fill="url(#paint2_linear_8506_310)"/>
<path fill-rule="evenodd" clip-rule="evenodd" d="M17.0215 9.87021L19.4948 6.38281H23.8422L23.8421 6.38293H28.369V9.92903H20.7094V9.92891H17.0215V9.87021ZM24.5392 20L24.5392 9.92908L20.9931 9.92908L20.9931 20H24.5392Z" fill="url(#paint3_linear_8506_310)"/>
<defs>
<linearGradient id="paint0_linear_8506_310" x1="14.1842" y1="20" x2="-0.000186363" y2="2.00322e-06" gradientUnits="userSpaceOnUse">
<stop stop-color="#008DFF"/>
<stop offset="1" stop-color="#02D3FF"/>
</linearGradient>
<linearGradient id="paint1_linear_8506_310" x1="0" y1="0" x2="17.5887" y2="-1.85474e-07" gradientUnits="userSpaceOnUse">
<stop stop-color="#02D3FF"/>
<stop offset="1" stop-color="#008DFF"/>
</linearGradient>
<linearGradient id="paint2_linear_8506_310" x1="14.1843" y1="20" x2="28.3687" y2="2.83039e-06" gradientUnits="userSpaceOnUse">
<stop stop-color="#02D3FF"/>
<stop offset="1" stop-color="#008DFF"/>
</linearGradient>
<linearGradient id="paint3_linear_8506_310" x1="22.6952" y1="6.38281" x2="22.5534" y2="19.9289" gradientUnits="userSpaceOnUse">
<stop stop-color="#02D3FF"/>
<stop offset="1" stop-color="#008DFF"/>
</linearGradient>
</defs>
</svg>
