<svg width="60" height="50" viewBox="0 0 60 50" fill="none" xmlns="http://www.w3.org/2000/svg">
<path d="M46.2663 0.63625C38.6679 0.623713 32.5067 6.77243 32.4942 14.3584C32.4816 21.9568 38.6303 28.118 46.2163 28.1305C50.7154 28.1431 54.927 25.9435 57.5014 22.2568V35.2666C57.5014 41.6528 52.4649 46.8642 46.2787 46.8642C45.6039 46.8642 45.029 47.4016 45.004 48.0765C44.9916 48.7762 45.554 49.3635 46.2538 49.3635C53.8272 49.3635 60.0009 43.0399 60.0009 35.2539V14.3833C60.001 6.79738 53.8523 0.648669 46.2663 0.63625ZM46.2789 25.631C40.0677 25.631 35.0312 20.5945 35.0312 14.3833C35.0312 8.17217 40.0677 3.13569 46.2789 3.13569C52.49 3.13569 57.5265 8.17217 57.5265 14.3833C57.514 20.5945 52.49 25.631 46.2789 25.631Z" fill="#0C3A30"/>
<path d="M13.7722 0.63625C6.17369 0.623713 0.0125556 6.77243 1.91361e-05 14.3708C-0.0125173 21.9692 6.1362 28.1179 13.7347 28.1304C18.2337 28.143 22.4454 25.9433 25.0198 22.2567V35.2665C25.0198 41.6527 19.9833 46.8641 13.7971 46.8641C13.1223 46.8641 12.5474 47.4015 12.5224 48.0764C12.5099 48.7762 13.0722 49.3636 13.7722 49.3636C21.3456 49.3636 27.5193 43.04 27.5193 35.2541V14.3833C27.5067 6.79738 21.3581 0.648669 13.7722 0.63625ZM13.7971 25.631C7.58597 25.631 2.54949 20.5945 2.54949 14.3833C2.54949 8.17217 7.58597 3.13569 13.7971 3.13569C20.0083 3.13569 25.0448 8.17217 25.0448 14.3833C25.0324 20.5945 20.0083 25.631 13.7971 25.631Z" fill="#0C3A30"/>
</svg>
